<?xml version="1.0" standalone="yes"?>
<svg xmlns="http://www.w3.org/2000/svg" width="16" height="16">
<path style="fill:#000000; stroke:none;" d="M0 0L0 14L14 14C13.2961 9.23398 11.4208 4.82001 11 0L0 0z"/>
<path style="fill:#ffdbaa; stroke:none;" d="M11 0C11.1174 2.73006 11.4992 5.3142 12 8L16 8L16 0L11 0z"/>
<path style="fill:#ffcf8e; stroke:none;" d="M13 8L14 16L16 16L16 8L13 8z"/>
<path style="fill:#d46453; stroke:none;" d="M0 14L0 16L7 16L7 14L0 14z"/>
<path style="fill:#d4796b; stroke:none;" d="M7 14L7 16L9 16L9 14L7 14z"/>
<path style="fill:#ffba5c; stroke:none;" d="M9 14L9 16L14 16L14 14L9 14z"/>
</svg>
