<?xml version="1.0" standalone="yes"?>
<svg xmlns="http://www.w3.org/2000/svg" width="26" height="26">
<path style="fill:#ffffff; stroke:none;" d="M0 0C0 5.94283 -0.69262 12.2737 1 18C2.9822 13.2762 2 7.09016 2 2L18 2C13.3838 -1.49726 5.60591 0 0 0z"/>
<path style="fill:#000000; stroke:none;" d="M17 0L18 2L2 2L2 18L0 17L0 26L9 26L8 24L24 24L24 8L26 9L26 0L17 0z"/>
<path style="fill:#ffffff; stroke:none;" d="M24 8L24 24L8 24C12.6162 27.4973 20.3941 26 26 26C26 20.3941 27.4973 12.6162 24 8z"/>
</svg>
